<svg id="svg" xmlns="http://www.w3.org/2000/svg" xmlns:xlink="http://www.w3.org/1999/xlink" width="400" height="299.6138996138996" viewBox="0, 0, 400,299.6138996138996" version="1.1"><g id="svgg"><path id="path0" d="M163.962 17.407 C 161.261 22.698,158.124 29.788,156.991 33.163 L 154.930 39.299 145.360 39.700 C 111.067 41.140,79.118 69.623,72.670 104.505 C 64.117 150.773,85.947 196.607,132.865 230.888 C 178.497 264.229,194.128 277.346,198.649 286.089 L 200.958 290.554 205.232 284.654 C 212.243 274.976,228.703 260.868,253.679 243.129 C 299.871 210.322,322.653 181.904,329.730 148.263 C 345.812 71.809,279.296 15.531,214.286 50.589 C 206.305 54.893,204.987 57.134,210.425 57.158 C 231.262 57.248,252.412 86.186,252.180 114.286 C 251.661 177.237,174.906 193.490,154.254 135.022 C 146.495 113.056,154.871 70.713,163.593 87.809 C 166.253 93.022,171.458 100.757,183.472 117.351 C 185.192 119.727,184.808 121.176,180.770 127.544 C 175.552 135.772,174.039 148.263,178.260 148.263 C 182.331 148.263,189.403 140.771,191.296 134.454 C 193.504 127.083,193.093 127.203,200.417 131.806 C 214.439 140.621,237.480 144.229,236.519 137.461 C 234.029 119.929,217.195 108.881,198.693 112.636 C 188.416 114.721,190.185 115.935,178.576 98.842 C 174.826 93.320,170.158 85.508,168.203 81.480 L 164.648 74.157 169.197 69.370 C 174.627 63.653,182.586 59.342,190.419 57.872 C 193.565 57.282,196.139 56.213,196.139 55.497 C 196.139 53.800,175.243 43.940,168.622 42.512 C 160.789 40.824,161.284 31.566,170.042 15.944 C 172.237 12.030,172.396 10.710,170.833 9.413 C 169.338 8.172,167.710 10.067,163.962 17.407 M150.418 57.382 C 154.972 63.884,146.367 70.910,140.430 65.537 C 136.817 62.268,136.661 59.699,139.879 56.481 C 143.276 53.084,147.671 53.460,150.418 57.382 M244.788 277.992 C 244.156 279.014,270.254 279.537,321.917 279.537 C 372.943 279.537,400.000 279.002,400.000 277.992 C 400.000 276.983,373.261 276.448,322.871 276.448 C 273.118 276.448,245.403 276.996,244.788 277.992 M38.996 279.149 C 60.869 279.391,96.660 279.391,118.533 279.149 C 140.405 278.908,122.510 278.710,78.764 278.710 C 35.019 278.710,17.124 278.908,38.996 279.149 " stroke="none" fill="#000000" fill-rule="evenodd"></path></g></svg>